<svg xmlns="http://www.w3.org/2000/svg" viewBox="0 0 24 24" fill="currentColor">
  <!-- Circle outline -->
  <path d="M12 0C5.373 0 0 5.373 0 12s5.373 12 12 12 12-5.373 12-12S18.627 0 12 0zm0 1.5c5.799 0 10.5 4.701 10.5 10.5S17.799 22.5 12 22.5 1.5 17.799 1.5 12 6.201 1.5 12 1.5z"/>
  <!-- Water line near top -->
  <rect x="1.8" y="7.5" width="20.4" height="1.2" rx="0.3"/>
  <!-- Iceberg tip above water (small flat top) -->
  <path d="M9 7.5h6L12.5 5h-1z"/>
  <!-- Iceberg body below water (large, pointing down) -->
  <path d="M7.5 8.7L6 13l2.5 4L12 20l3.5-3L18 13l-1.5-4.3z"/>
  <!-- Internal facet lines for geometric look -->
  <path d="M12 20l-3.5-7h7z" fill="white" opacity="0.2"/>
  <path d="M12 20l3.5-3 2.5-4-4.5-4.3z" fill="white" opacity="0.12"/>
</svg>
