<svg xmlns="http://www.w3.org/2000/svg" viewBox="0 0 24 24" fill="currentColor">
  <!-- Circle outline -->
  <path d="M12 0C5.373 0 0 5.373 0 12s5.373 12 12 12 12-5.373 12-12S18.627 0 12 0zm0 1.5c5.799 0 10.5 4.701 10.5 10.5S17.799 22.5 12 22.5 1.5 17.799 1.5 12 6.201 1.5 12 1.5z"/>
  <!-- Water line -->
  <rect x="1.8" y="8.2" width="20.4" height="1.3" rx="0.3"/>
  <!-- Iceberg tip above water -->
  <path d="M8.5 8.2h7L12 4.5z"/>
  <!-- Iceberg body below water -->
  <path d="M7 9.5l-1.5 5.5 3 3.5h1.5L12 15l2 3.5h1.5l3-3.5L17 9.5H7z"/>
  <!-- Internal facet lines for geometric look -->
  <path d="M12 15l-3-5.5h6z" fill="white" opacity="0.25"/>
  <path d="M12 15l2 3.5 2.5-3L14 9.5z" fill="white" opacity="0.15"/>
</svg>
