<svg fill="#000000" role="img" viewBox="0 0 24 24" xmlns="http://www.w3.org/2000/svg"><title>Azure Synapse Analytics</title><path d="M19.5 12c0-1.93-1.57-3.5-3.5-3.5-.89 0-1.7.33-2.32.87L12 7.69l-1.68 1.68c-.62-.54-1.43-.87-2.32-.87-1.93 0-3.5 1.57-3.5 3.5s1.57 3.5 3.5 3.5c.89 0 1.7-.33 2.32-.87L12 16.31l1.68-1.68c.62.54 1.43.87 2.32.87 1.93 0 3.5-1.57 3.5-3.5zM8 13.5c-.83 0-1.5-.67-1.5-1.5s.67-1.5 1.5-1.5 1.5.67 1.5 1.5-.67 1.5-1.5 1.5zm8 0c-.83 0-1.5-.67-1.5-1.5s.67-1.5 1.5-1.5 1.5.67 1.5 1.5-.67 1.5-1.5 1.5z"/></svg>